# xmcd
# Track frame offsets:
# 183
# 12863
# 25560
# 36728
# 49013
# 58893
# 69558
# 81845
# 91233
# 102870
# 115373
# 128860
# 143235
# 159570
# 170168
# 179440
# 193348
# 205303
# 216655
# 232463
#
# Disc length: 3215 seconds
# Revision: 2
# Processed by: cddbd v1.5PL3 Copyright (c) Steve Scherf et al.
# Submitted via: VisiTrax 2.9.9.209 - For more info visit www.synapsa.com
#
DISCID=370c8d14
DTITLE=Moe Bandy - 20 Great Songs of the American Cowboy
DYEAR=1990
DGENRE=Country
TTITLE0=Home On The Range
TTITLE1=I'm An Old Cowhand
TTITLE2=Back In The Saddle Again
TTITLE3=Streets Of Laredo
TTITLE4=Old Faithful
TTITLE5=Don't Fence Me In
TTITLE6=San Antonio Rose
TTITLE7=Deep In The Heart Of Texas
TTITLE8=Oklahoma Hills
TTITLE9=When It's Springtime In The Rockies
TTITLE10=Take Me Back To Tulsa
TTITLE11=Red River Valley
TTITLE12=Cool Water
TTITLE13=Sioux City Sue
TTITLE14=Tumbling Tumbleweeds
TTITLE15=Bury Me Not On The Lone Prairie
TTITLE16=High Noon (Do Not Forsake Me)
TTITLE17=Good Old Paint
TTITLE18=The Strawberry Roan
TTITLE19=The Old Chisholm Trail
EXTD=
EXTT0=
EXTT1=
EXTT2=
EXTT3=
EXTT4=
EXTT5=
EXTT6=
EXTT7=
EXTT8=
EXTT9=
EXTT10=
EXTT11=
EXTT12=
EXTT13=
EXTT14=
EXTT15=
EXTT16=
EXTT17=
EXTT18=
EXTT19=
PLAYORDER=
